<svg width="186" height="101" viewBox="0 0 186 101" fill="none" xmlns="http://www.w3.org/2000/svg">
<circle cx="135.5" cy="50.5" r="50" stroke="black"/>
<path d="M109.096 51L104.866 39.732H104.794C104.818 39.972 104.836 40.278 104.848 40.65C104.872 41.022 104.89 41.43 104.902 41.874C104.914 42.306 104.92 42.75 104.92 43.206V51H103.426V38.148H105.82L109.78 48.678H109.852L113.884 38.148H116.26V51H114.658V43.098C114.658 42.678 114.664 42.264 114.676 41.856C114.688 41.436 114.706 41.046 114.73 40.686C114.754 40.314 114.772 40.002 114.784 39.75H114.712L110.428 51H109.096ZM130.97 44.556C130.97 45.552 130.844 46.458 130.592 47.274C130.34 48.078 129.962 48.774 129.458 49.362C128.966 49.95 128.348 50.4 127.604 50.712C126.872 51.024 126.02 51.18 125.048 51.18C124.04 51.18 123.164 51.024 122.42 50.712C121.676 50.388 121.058 49.938 120.566 49.362C120.074 48.774 119.708 48.072 119.468 47.256C119.228 46.44 119.108 45.534 119.108 44.538C119.108 43.218 119.324 42.066 119.756 41.082C120.188 40.098 120.842 39.33 121.718 38.778C122.606 38.226 123.722 37.95 125.066 37.95C126.35 37.95 127.43 38.226 128.306 38.778C129.182 39.318 129.842 40.086 130.286 41.082C130.742 42.066 130.97 43.224 130.97 44.556ZM120.818 44.556C120.818 45.636 120.968 46.566 121.268 47.346C121.568 48.126 122.03 48.726 122.654 49.146C123.29 49.566 124.088 49.776 125.048 49.776C126.02 49.776 126.812 49.566 127.424 49.146C128.048 48.726 128.51 48.126 128.81 47.346C129.11 46.566 129.26 45.636 129.26 44.556C129.26 42.936 128.924 41.67 128.252 40.758C127.58 39.834 126.518 39.372 125.066 39.372C124.094 39.372 123.29 39.582 122.654 40.002C122.03 40.41 121.568 41.004 121.268 41.784C120.968 42.552 120.818 43.476 120.818 44.556ZM137.49 38.148C138.558 38.148 139.452 38.25 140.172 38.454C140.904 38.658 141.45 38.994 141.81 39.462C142.182 39.93 142.368 40.554 142.368 41.334C142.368 41.838 142.272 42.288 142.08 42.684C141.9 43.068 141.624 43.392 141.252 43.656C140.892 43.908 140.448 44.082 139.92 44.178V44.268C140.46 44.352 140.946 44.508 141.378 44.736C141.822 44.964 142.17 45.288 142.422 45.708C142.674 46.128 142.8 46.674 142.8 47.346C142.8 48.126 142.62 48.792 142.26 49.344C141.9 49.884 141.384 50.298 140.712 50.586C140.052 50.862 139.26 51 138.336 51H133.818V38.148H137.49ZM137.814 43.62C138.918 43.62 139.674 43.446 140.082 43.098C140.49 42.738 140.694 42.21 140.694 41.514C140.694 40.806 140.442 40.302 139.938 40.002C139.446 39.69 138.654 39.534 137.562 39.534H135.438V43.62H137.814ZM135.438 44.97V49.632H138.03C139.17 49.632 139.962 49.41 140.406 48.966C140.85 48.522 141.072 47.94 141.072 47.22C141.072 46.764 140.97 46.368 140.766 46.032C140.574 45.696 140.244 45.438 139.776 45.258C139.32 45.066 138.696 44.97 137.904 44.97H135.438ZM149.143 51H144.499V50.064L146.011 49.722V39.444L144.499 39.084V38.148H149.143V39.084L147.631 39.444V49.722L149.143 50.064V51ZM151.625 51V38.148H153.245V49.56H158.861V51H151.625ZM168.246 51H161.064V38.148H168.246V39.57H162.684V43.584H167.922V44.988H162.684V49.578H168.246V51ZM131.001 74L129.453 70.022H124.359L122.829 74H121.191L126.213 61.094H127.671L132.675 74H131.001ZM127.527 64.694C127.491 64.598 127.431 64.424 127.347 64.172C127.263 63.92 127.179 63.662 127.095 63.398C127.023 63.122 126.963 62.912 126.915 62.768C126.855 63.008 126.789 63.254 126.717 63.506C126.657 63.746 126.591 63.968 126.519 64.172C126.459 64.376 126.405 64.55 126.357 64.694L124.899 68.582H128.967L127.527 64.694ZM137.836 61.148C139.516 61.148 140.74 61.478 141.508 62.138C142.276 62.798 142.66 63.728 142.66 64.928C142.66 65.456 142.57 65.966 142.39 66.458C142.222 66.938 141.94 67.37 141.544 67.754C141.148 68.138 140.62 68.444 139.96 68.672C139.3 68.888 138.49 68.996 137.53 68.996H136.054V74H134.434V61.148H137.836ZM137.692 62.534H136.054V67.61H137.35C138.166 67.61 138.844 67.526 139.384 67.358C139.924 67.178 140.326 66.896 140.59 66.512C140.854 66.128 140.986 65.624 140.986 65C140.986 64.172 140.722 63.554 140.194 63.146C139.666 62.738 138.832 62.534 137.692 62.534ZM148.734 61.148C150.414 61.148 151.638 61.478 152.406 62.138C153.174 62.798 153.558 63.728 153.558 64.928C153.558 65.456 153.468 65.966 153.288 66.458C153.12 66.938 152.838 67.37 152.442 67.754C152.046 68.138 151.518 68.444 150.858 68.672C150.198 68.888 149.388 68.996 148.428 68.996H146.952V74H145.332V61.148H148.734ZM148.59 62.534H146.952V67.61H148.248C149.064 67.61 149.742 67.526 150.282 67.358C150.822 67.178 151.224 66.896 151.488 66.512C151.752 66.128 151.884 65.624 151.884 65C151.884 64.172 151.62 63.554 151.092 63.146C150.564 62.738 149.73 62.534 148.59 62.534Z" fill="black"/>
<circle cx="50.5" cy="50.5" r="50.5" fill="#DDFF00"/>
<path d="M29.506 44.148L26.086 57H24.448L21.946 48.576C21.874 48.324 21.802 48.066 21.73 47.802C21.658 47.538 21.592 47.286 21.532 47.046C21.472 46.806 21.418 46.602 21.37 46.434C21.334 46.254 21.31 46.122 21.298 46.038C21.286 46.122 21.262 46.254 21.226 46.434C21.202 46.602 21.16 46.806 21.1 47.046C21.04 47.286 20.974 47.544 20.902 47.82C20.842 48.084 20.77 48.354 20.686 48.63L18.256 57H16.618L13.216 44.148H14.908L16.906 51.996C16.978 52.272 17.044 52.548 17.104 52.824C17.164 53.088 17.218 53.352 17.266 53.616C17.326 53.868 17.374 54.114 17.41 54.354C17.446 54.594 17.482 54.828 17.518 55.056C17.554 54.816 17.59 54.57 17.626 54.318C17.674 54.066 17.728 53.808 17.788 53.544C17.848 53.268 17.914 52.992 17.986 52.716C18.058 52.44 18.13 52.17 18.202 51.906L20.47 44.148H22.144L24.502 51.96C24.586 52.236 24.664 52.518 24.736 52.806C24.808 53.082 24.874 53.352 24.934 53.616C24.994 53.88 25.042 54.138 25.078 54.39C25.126 54.63 25.168 54.852 25.204 55.056C25.24 54.756 25.288 54.444 25.348 54.12C25.408 53.784 25.48 53.436 25.564 53.076C25.648 52.716 25.738 52.35 25.834 51.978L27.814 44.148H29.506ZM38.6624 57H31.4804V44.148H38.6624V45.57H33.1004V49.584H38.3384V50.988H33.1004V55.578H38.6624V57ZM45.1543 44.148C46.2223 44.148 47.1163 44.25 47.8363 44.454C48.5683 44.658 49.1143 44.994 49.4743 45.462C49.8463 45.93 50.0323 46.554 50.0323 47.334C50.0323 47.838 49.9363 48.288 49.7443 48.684C49.5643 49.068 49.2883 49.392 48.9163 49.656C48.5563 49.908 48.1123 50.082 47.5843 50.178V50.268C48.1243 50.352 48.6103 50.508 49.0423 50.736C49.4863 50.964 49.8343 51.288 50.0863 51.708C50.3383 52.128 50.4643 52.674 50.4643 53.346C50.4643 54.126 50.2843 54.792 49.9243 55.344C49.5643 55.884 49.0483 56.298 48.3763 56.586C47.7163 56.862 46.9243 57 46.0003 57H41.4823V44.148H45.1543ZM45.4783 49.62C46.5823 49.62 47.3383 49.446 47.7463 49.098C48.1543 48.738 48.3583 48.21 48.3583 47.514C48.3583 46.806 48.1063 46.302 47.6023 46.002C47.1103 45.69 46.3183 45.534 45.2263 45.534H43.1023V49.62H45.4783ZM43.1023 50.97V55.632H45.6943C46.8343 55.632 47.6263 55.41 48.0703 54.966C48.5143 54.522 48.7363 53.94 48.7363 53.22C48.7363 52.764 48.6343 52.368 48.4303 52.032C48.2383 51.696 47.9083 51.438 47.4403 51.258C46.9843 51.066 46.3603 50.97 45.5683 50.97H43.1023ZM60.4794 53.562C60.4794 54.33 60.2934 54.984 59.9214 55.524C59.5494 56.052 59.0154 56.46 58.3194 56.748C57.6354 57.036 56.8254 57.18 55.8894 57.18C55.4094 57.18 54.9474 57.156 54.5034 57.108C54.0714 57.06 53.6754 56.994 53.3154 56.91C52.9554 56.814 52.6374 56.7 52.3614 56.568V55.02C52.7934 55.212 53.3274 55.386 53.9634 55.542C54.6114 55.698 55.2774 55.776 55.9614 55.776C56.5974 55.776 57.1314 55.692 57.5634 55.524C57.9954 55.356 58.3194 55.116 58.5354 54.804C58.7514 54.492 58.8594 54.126 58.8594 53.706C58.8594 53.286 58.7694 52.932 58.5894 52.644C58.4094 52.356 58.0974 52.092 57.6534 51.852C57.2214 51.6 56.6154 51.336 55.8354 51.06C55.2834 50.856 54.7974 50.64 54.3774 50.412C53.9694 50.172 53.6274 49.902 53.3514 49.602C53.0754 49.302 52.8654 48.96 52.7214 48.576C52.5894 48.192 52.5234 47.748 52.5234 47.244C52.5234 46.56 52.6974 45.978 53.0454 45.498C53.3934 45.006 53.8734 44.628 54.4854 44.364C55.1094 44.1 55.8234 43.968 56.6274 43.968C57.3354 43.968 57.9834 44.034 58.5714 44.166C59.1594 44.298 59.6934 44.472 60.1734 44.688L59.6694 46.074C59.2254 45.882 58.7394 45.72 58.2114 45.588C57.6954 45.456 57.1554 45.39 56.5914 45.39C56.0514 45.39 55.6014 45.468 55.2414 45.624C54.8814 45.78 54.6114 46.002 54.4314 46.29C54.2514 46.566 54.1614 46.89 54.1614 47.262C54.1614 47.694 54.2514 48.054 54.4314 48.342C54.6114 48.63 54.9054 48.888 55.3134 49.116C55.7214 49.344 56.2734 49.59 56.9694 49.854C57.7254 50.13 58.3614 50.43 58.8774 50.754C59.4054 51.066 59.8014 51.444 60.0654 51.888C60.3414 52.332 60.4794 52.89 60.4794 53.562ZM66.6863 57H62.0423V56.064L63.5543 55.722V45.444L62.0423 45.084V44.148H66.6863V45.084L65.1743 45.444V55.722L66.6863 56.064V57ZM73.2359 57H71.6159V45.57H67.6019V44.148H77.2319V45.57H73.2359V57ZM86.3518 57H79.1698V44.148H86.3518V45.57H80.7898V49.584H86.0278V50.988H80.7898V55.578H86.3518V57Z" fill="black"/>
</svg>
